<svg width="70" height="42" viewBox="0 0 70 42" fill="none" xmlns="http://www.w3.org/2000/svg">
<path d="M37.2425 12.9041C38.5628 11.0505 38.5214 9.36805 37.1632 8.19358C36.5833 7.6835 35.8351 7.40606 35.0629 7.41471C34.2906 7.42336 33.5489 7.71748 32.9805 8.24042C31.6583 9.47253 31.6331 11.137 32.7842 12.6645C32.1663 13.6732 31.417 14.5523 31.0675 15.5682C30.7685 16.4365 30.8207 17.474 30.9126 18.4161C31.0315 19.6248 30.4965 20.3796 29.6192 21.0731C26.4165 23.604 21.7907 23.3536 18.9626 20.466C17.5695 19.0529 16.75 17.1734 16.6625 15.191C16.575 13.2085 17.2257 11.2641 18.4888 9.73372C20.4883 7.30553 22.4511 4.84671 24.3774 2.35728C25.2546 1.22964 26.2327 0.312766 27.7044 0.107415C29.848 -0.191606 31.7016 0.793721 32.6058 2.7932C32.8364 3.30658 33.0994 3.4687 33.6092 3.42006C33.9389 3.39304 34.2702 3.39304 34.5999 3.42006C36.041 3.50833 37.1308 3.43627 38.0801 1.8475C39.5662 -0.640138 43.2607 -0.555473 45.1053 1.73942C46.876 3.93164 48.5782 6.1797 50.3291 8.39353C50.6804 8.84026 51.0857 9.24196 51.4568 9.67247C52.7746 11.2246 53.4489 13.222 53.3416 15.2553C53.2343 17.2886 52.3535 19.2039 50.8796 20.6087C49.4057 22.0135 47.4503 22.8015 45.4142 22.8111C43.3781 22.8207 41.4154 22.0514 39.9283 20.6606C39.4797 20.2391 39.2401 19.8013 39.2906 19.1709C39.341 18.5404 39.3032 17.91 39.3032 17.2831C39.3032 15.0693 38.9699 14.3631 37.2425 12.9041ZM43.9524 16.5427C43.0986 15.1161 43.1058 14.165 43.9218 13.3526C44.2552 13.0002 44.7049 12.7805 45.1877 12.7342C45.6705 12.6878 46.1538 12.8179 46.5481 13.1004C46.894 13.3472 47.3209 13.7597 47.3461 14.1218C47.4002 14.9324 47.2254 15.7592 47.13 16.7301C48.0865 17.3209 48.3333 18.4918 48.2882 19.8013C50.5705 18.6737 51.7108 15.8384 51.0118 13.2679C50.2913 10.6344 47.7893 8.8907 44.9504 9.05822C42.306 9.21313 40.0183 11.3387 39.6526 13.9777C39.3086 16.4563 40.5857 19.0664 42.5654 19.7635C42.4339 18.4395 42.7527 17.3047 43.9524 16.5427ZM23.1687 16.5427C22.313 15.0909 22.3545 14.0029 23.2137 13.2571C23.5852 12.9227 24.0645 12.7331 24.5642 12.7228C25.0639 12.7126 25.5507 12.8824 25.9355 13.2013C26.8956 13.9867 26.9497 14.9432 26.085 16.5554C27.3063 17.2543 27.5261 18.4648 27.4973 19.7977C29.7291 18.6971 30.8874 15.9375 30.2695 13.4373C29.6066 10.7551 27.164 8.94294 24.3431 9.04561C21.6051 9.14469 19.3787 11.1153 18.8761 13.884C18.4528 16.2257 19.7281 18.9277 21.7312 19.7455C21.6772 18.4468 21.96 17.2849 23.1687 16.5518V16.5427Z" fill="white"/>
<path d="M11.6888 41.1955C9.10751 41.1955 7.12064 39.3293 7.11343 36.8831C7.10443 34.3757 9.08049 32.4428 11.6654 32.4302C14.2503 32.4176 16.2462 34.3288 16.2444 36.8399C16.2426 39.2627 14.2287 41.1883 11.6888 41.1955ZM13.9135 36.8129C13.8936 35.4583 12.9047 34.4513 11.6114 34.4711C10.318 34.491 9.42994 35.4781 9.44976 36.8237C9.46957 38.1693 10.4549 39.1888 11.7501 39.1654C13.0452 39.142 13.9315 38.1567 13.9135 36.8129Z" fill="white"/>
<path d="M35.7276 40.9527H33.6542C33.6074 40.7636 33.5534 40.5528 33.4939 40.3205C33.4036 40.3359 33.3161 40.3651 33.2345 40.4069C32.4131 41.068 31.4746 41.2643 30.4479 41.1365C29.1383 40.9725 28.2502 40.1205 28.126 38.9046C27.98 37.5032 28.5907 36.426 29.9705 36.1396C31.0837 35.909 32.2618 35.9937 33.4597 35.936C33.7209 34.5868 32.5212 34.1941 29.4175 34.8732L28.8393 33.1854C30.5469 32.4306 32.233 32.2307 33.9515 32.7999C34.435 32.942 34.8623 33.2308 35.1744 33.6265C35.4865 34.0221 35.6678 34.5051 35.6933 35.0083C35.7978 36.9664 35.7276 38.9352 35.7276 40.9527ZM32.2852 37.2942C31.1144 37.2528 30.4208 37.6743 30.3776 38.4146C30.3362 39.0883 30.8442 39.5333 31.6836 39.5567C32.7644 39.5891 33.5894 38.9785 33.5984 38.1156C33.6074 37.0691 32.7103 37.5122 32.2816 37.2942H32.2852Z" fill="white"/>
<path d="M0 39.9257L0.900665 38.5603C1.88419 38.8467 2.75063 39.1674 3.64409 39.3205C3.94851 39.3727 4.32499 39.0035 4.66905 38.8287C4.41326 38.5477 4.2079 38.1676 3.89087 38.0091C3.33606 37.7317 2.70019 37.62 2.11656 37.3877C0.879049 36.8941 0.353061 36.1051 0.430518 34.9324C0.453869 34.3872 0.656755 33.865 1.00761 33.4471C1.35847 33.0291 1.83763 32.7388 2.37055 32.6213C3.86746 32.2521 5.25268 32.5547 6.61989 33.4427L5.79668 34.9288C5.00049 34.7019 4.27455 34.4281 3.5252 34.3182C3.23519 34.275 2.88933 34.6082 2.5705 34.7703C2.78125 35.0279 2.93076 35.3882 3.21177 35.5215C3.85124 35.8385 4.55736 36.0186 5.21305 36.3069C6.41093 36.831 6.92251 37.6308 6.82163 38.7315C6.71536 39.9113 6.07228 40.6787 4.85098 40.9993C3.10909 41.4569 1.55094 40.9903 0 39.9257Z" fill="white"/>
<path d="M24.2711 33.8534C23.8028 34.365 23.3597 34.8441 22.9219 35.3197C21.389 34.2533 20.2848 34.2047 19.4616 35.1396C18.678 36.0312 18.6654 37.5587 19.4346 38.4594C20.2596 39.4267 21.4304 39.3961 22.9472 38.3874L24.2982 39.6339C23.9128 40.088 23.4401 40.4602 22.9083 40.7283C22.3764 40.9965 21.7962 41.1552 21.2019 41.195C20.6076 41.2348 20.0113 41.1549 19.4485 40.9601C18.8856 40.7653 18.3676 40.4595 17.9251 40.0608C16.1237 38.4396 16.0769 35.4134 17.8116 33.6841C19.5462 31.9548 22.5545 32.0088 24.2711 33.8534Z" fill="white"/>
<path d="M40.937 29.5449H42.0178V34.4788C43.1293 33.2034 44.2857 32.409 45.7484 32.7873C46.6099 33.0067 47.3976 33.4512 48.0307 34.0753C49.5114 35.6262 49.4195 38.3228 47.9947 39.926C46.5194 41.5868 44.8405 41.5472 42.0701 39.7459C42.0467 40.1494 42.0268 40.5222 42.0034 40.9437H40.9316L40.937 29.5449ZM47.8577 36.943C47.8577 35.12 46.6563 33.7925 45.0098 33.7835C43.331 33.7744 42.0088 35.1543 42.0034 36.9232C41.998 38.6921 43.2788 40.1025 44.9576 40.1151C46.6941 40.1295 47.8632 38.8506 47.8577 36.943Z" fill="white"/>
<path d="M39.2925 40.9634H37.0498V29.5664H39.2925V40.9634Z" fill="white"/>
<path d="M65.7864 41.1923C63.405 41.2049 61.5676 39.3909 61.5244 36.9988C61.5124 35.8747 61.9468 34.7918 62.7323 33.9878C63.5179 33.1837 64.5903 32.7241 65.7143 32.7098C66.2709 32.6934 66.8251 32.7889 67.3442 32.9905C67.8632 33.1921 68.3365 33.4958 68.7361 33.8837C69.1357 34.2715 69.4534 34.7355 69.6704 35.2483C69.8875 35.7611 69.9994 36.3122 69.9997 36.8691C70.0285 39.3045 68.2001 41.1797 65.7864 41.1923ZM65.7756 40.1313C67.5409 40.1313 68.8252 38.7803 68.8162 36.9339C68.8072 35.1524 67.4382 33.7402 65.7251 33.7456C64.0121 33.751 62.7655 35.084 62.7475 36.9087C62.7295 38.7335 64.0463 40.1313 65.7756 40.1313Z" fill="white"/>
<path d="M53.4347 32.9328H54.4795L54.6596 34.1451C55.4648 33.1238 56.3979 32.6356 57.5958 32.7041C59.053 32.7941 60.2779 33.72 60.3734 35.1575C60.4995 37.0615 60.404 38.9799 60.404 40.9434H59.3232C59.3232 40.0931 59.3232 39.2627 59.3232 38.4323C59.3232 37.6019 59.3611 36.8111 59.307 36.0023C59.2152 34.5937 58.3829 33.7849 57.0968 33.7741C55.7242 33.7741 54.7046 34.6189 54.6218 35.9825C54.5425 37.2993 54.5857 38.6232 54.5767 39.9454C54.5767 40.2697 54.5767 40.5939 54.5767 40.9578H53.4347V32.9328Z" fill="white"/>
<path d="M27.391 40.965H25.0619V32.5726C25.705 32.5726 26.3228 32.5348 26.9299 32.596C27.0395 32.6336 27.1377 32.6988 27.2149 32.7852C27.2922 32.8716 27.346 32.9764 27.3712 33.0896C27.4 35.6853 27.391 38.2774 27.391 40.965Z" fill="white"/>
<path d="M50.457 32.9351H51.5378V40.96H50.457V32.9351Z" fill="white"/>
<path d="M24.9862 31.5422V29.4995H27.3604V31.5422H24.9862Z" fill="white"/>
<path d="M51.6279 31.0092H50.376V29.8384H51.6279V31.0092Z" fill="white"/>
</svg>
