<svg width="70" height="42" viewBox="0 0 70 42" fill="none" xmlns="http://www.w3.org/2000/svg">
<path d="M37.2425 12.9041C38.5628 11.0505 38.5214 9.36805 37.1632 8.19358C36.5833 7.6835 35.8351 7.40606 35.0629 7.41471C34.2906 7.42336 33.5489 7.71748 32.9805 8.24042C31.6583 9.47253 31.6331 11.137 32.7842 12.6645C32.1663 13.6732 31.417 14.5523 31.0675 15.5682C30.7685 16.4365 30.8207 17.474 30.9126 18.4161C31.0315 19.6248 30.4965 20.3796 29.6192 21.0731C26.4165 23.604 21.7907 23.3536 18.9626 20.466C17.5695 19.0529 16.75 17.1734 16.6625 15.191C16.575 13.2085 17.2257 11.2641 18.4888 9.73372C20.4883 7.30553 22.4511 4.84671 24.3774 2.35728C25.2546 1.22964 26.2327 0.312766 27.7044 0.107415C29.848 -0.191606 31.7016 0.793721 32.6058 2.7932C32.8364 3.30658 33.0994 3.4687 33.6092 3.42006C33.9389 3.39304 34.2702 3.39304 34.5999 3.42006C36.041 3.50833 37.1308 3.43627 38.0801 1.8475C39.5662 -0.640138 43.2607 -0.555473 45.1053 1.73942C46.876 3.93164 48.5782 6.1797 50.3291 8.39353C50.6804 8.84026 51.0857 9.24196 51.4568 9.67247C52.7746 11.2246 53.4489 13.222 53.3416 15.2553C53.2343 17.2886 52.3535 19.2039 50.8796 20.6087C49.4057 22.0135 47.4503 22.8015 45.4142 22.8111C43.3781 22.8207 41.4154 22.0514 39.9283 20.6606C39.4797 20.2391 39.2401 19.8013 39.2906 19.1709C39.341 18.5404 39.3032 17.91 39.3032 17.2831C39.3032 15.0693 38.9699 14.3631 37.2425 12.9041ZM43.9524 16.5427C43.0986 15.1161 43.1058 14.165 43.9218 13.3526C44.2552 13.0002 44.7049 12.7805 45.1877 12.7342C45.6705 12.6878 46.1538 12.8179 46.5481 13.1004C46.894 13.3472 47.3209 13.7597 47.3461 14.1218C47.4002 14.9324 47.2254 15.7592 47.13 16.7301C48.0865 17.3209 48.3333 18.4918 48.2882 19.8013C50.5705 18.6737 51.7108 15.8384 51.0118 13.2679C50.2913 10.6344 47.7893 8.8907 44.9504 9.05822C42.306 9.21313 40.0183 11.3387 39.6526 13.9777C39.3086 16.4563 40.5857 19.0664 42.5654 19.7635C42.4339 18.4395 42.7527 17.3047 43.9524 16.5427ZM23.1687 16.5427C22.313 15.0909 22.3545 14.0029 23.2137 13.2571C23.5852 12.9227 24.0645 12.7331 24.5642 12.7228C25.0639 12.7126 25.5507 12.8824 25.9355 13.2013C26.8956 13.9867 26.9497 14.9432 26.085 16.5554C27.3063 17.2543 27.5261 18.4648 27.4973 19.7977C29.7291 18.6971 30.8874 15.9375 30.2695 13.4373C29.6066 10.7551 27.164 8.94294 24.3431 9.04561C21.6051 9.14469 19.3787 11.1153 18.8761 13.884C18.4528 16.2257 19.7281 18.9277 21.7312 19.7455C21.6772 18.4468 21.96 17.2849 23.1687 16.5518V16.5427Z" fill="#D3FF77"/>
<path d="M11.6888 41.1958C9.10751 41.1958 7.12064 39.3296 7.11343 36.8834C7.10443 34.3759 9.08049 32.4431 11.6654 32.4305C14.2503 32.4179 16.2462 34.3291 16.2444 36.8401C16.2426 39.2629 14.2287 41.1885 11.6888 41.1958ZM13.9135 36.8131C13.8936 35.4585 12.9047 34.4516 11.6114 34.4714C10.318 34.4912 9.42994 35.4783 9.44976 36.8239C9.46957 38.1695 10.4549 39.1891 11.7501 39.1656C13.0452 39.1422 13.9315 38.1569 13.9135 36.8131Z" fill="#D3FF77"/>
<path d="M35.7276 40.9526H33.6542C33.6074 40.7634 33.5534 40.5527 33.4939 40.3203C33.4036 40.3358 33.3161 40.3649 33.2345 40.4068C32.4131 41.0679 31.4746 41.2642 30.4479 41.1363C29.1383 40.9724 28.2502 40.1204 28.126 38.9045C27.98 37.503 28.5907 36.4258 29.9705 36.1394C31.0837 35.9088 32.2618 35.9935 33.4597 35.9359C33.7209 34.5867 32.5212 34.194 29.4175 34.8731L28.8393 33.1852C30.5469 32.4305 32.233 32.2305 33.9515 32.7998C34.435 32.9418 34.8623 33.2307 35.1744 33.6263C35.4865 34.022 35.6678 34.5049 35.6933 35.0082C35.7978 36.9662 35.7276 38.9351 35.7276 40.9526ZM32.2852 37.2941C31.1144 37.2526 30.4208 37.6741 30.3776 38.4145C30.3362 39.0882 30.8442 39.5331 31.6836 39.5565C32.7644 39.589 33.5894 38.9783 33.5984 38.1155C33.6074 37.0689 32.7103 37.512 32.2816 37.2941H32.2852Z" fill="#D3FF77"/>
<path d="M0 39.9258L0.900665 38.5604C1.88419 38.8468 2.75063 39.1674 3.64409 39.3205C3.94851 39.3728 4.32499 39.0035 4.66905 38.8288C4.41326 38.5478 4.2079 38.1677 3.89087 38.0092C3.33606 37.7318 2.70019 37.6201 2.11656 37.3877C0.879049 36.8942 0.353061 36.1052 0.430518 34.9325C0.453869 34.3873 0.656755 33.8651 1.00761 33.4471C1.35847 33.0292 1.83763 32.7389 2.37055 32.6214C3.86746 32.2521 5.25268 32.5548 6.61989 33.4428L5.79668 34.9289C5.00049 34.7019 4.27455 34.4281 3.5252 34.3183C3.23519 34.275 2.88933 34.6083 2.5705 34.7704C2.78125 35.028 2.93076 35.3882 3.21177 35.5215C3.85124 35.8386 4.55736 36.0187 5.21305 36.3069C6.41093 36.8311 6.92251 37.6309 6.82163 38.7315C6.71536 39.9114 6.07228 40.6787 4.85098 40.9994C3.10909 41.4569 1.55094 40.9904 0 39.9258Z" fill="#D3FF77"/>
<path d="M24.2711 33.8535C23.8028 34.3651 23.3597 34.8443 22.9219 35.3198C21.389 34.2534 20.2848 34.2048 19.4616 35.1397C18.678 36.0313 18.6654 37.5589 19.4346 38.4595C20.2596 39.4268 21.4304 39.3962 22.9472 38.3875L24.2982 39.634C23.9128 40.0881 23.4401 40.4603 22.9083 40.7285C22.3764 40.9966 21.7962 41.1553 21.2019 41.1951C20.6076 41.2349 20.0113 41.1551 19.4485 40.9602C18.8856 40.7654 18.3676 40.4596 17.9251 40.0609C16.1237 38.4397 16.0769 35.4135 17.8116 33.6842C19.5462 31.9549 22.5545 32.009 24.2711 33.8535Z" fill="#D3FF77"/>
<path d="M40.937 29.5447H42.0178V34.4786C43.1293 33.2032 44.2857 32.4089 45.7484 32.7871C46.6099 33.0065 47.3976 33.451 48.0307 34.0751C49.5114 35.626 49.4195 38.3226 47.9947 39.9258C46.5194 41.5866 44.8405 41.547 42.0701 39.7457C42.0467 40.1492 42.0268 40.522 42.0034 40.9436H40.9316L40.937 29.5447ZM47.8577 36.9428C47.8577 35.1199 46.6563 33.7923 45.0098 33.7833C43.331 33.7743 42.0088 35.1541 42.0034 36.923C41.998 38.6919 43.2788 40.1023 44.9576 40.1149C46.6941 40.1294 47.8632 38.8504 47.8577 36.9428Z" fill="#D3FF77"/>
<path d="M39.2925 40.9634H37.0498V29.5663H39.2925V40.9634Z" fill="#D3FF77"/>
<path d="M65.7864 41.1921C63.405 41.2047 61.5676 39.3908 61.5244 36.9986C61.5124 35.8746 61.9468 34.7917 62.7323 33.9876C63.5179 33.1835 64.5903 32.7239 65.7143 32.7097C66.2709 32.6933 66.8251 32.7887 67.3442 32.9904C67.8632 33.192 68.3365 33.4957 68.7361 33.8835C69.1357 34.2713 69.4534 34.7354 69.6704 35.2482C69.8875 35.761 69.9994 36.3121 69.9997 36.8689C70.0285 39.3043 68.2001 41.1795 65.7864 41.1921ZM65.7756 40.1311C67.5409 40.1311 68.8252 38.7801 68.8162 36.9338C68.8072 35.1523 67.4382 33.74 65.7251 33.7454C64.0121 33.7508 62.7655 35.0838 62.7475 36.9086C62.7295 38.7333 64.0463 40.1311 65.7756 40.1311Z" fill="#D3FF77"/>
<path d="M53.4347 32.9331H54.4795L54.6596 34.1454C55.4648 33.124 56.3979 32.6358 57.5958 32.7043C59.053 32.7944 60.2779 33.7202 60.3734 35.1577C60.4995 37.0617 60.404 38.9801 60.404 40.9436H59.3232C59.3232 40.0933 59.3232 39.2629 59.3232 38.4325C59.3232 37.6021 59.3611 36.8113 59.307 36.0025C59.2152 34.5939 58.3829 33.7851 57.0968 33.7743C55.7242 33.7743 54.7046 34.6191 54.6218 35.9827C54.5425 37.2995 54.5857 38.6235 54.5767 39.9456C54.5767 40.2699 54.5767 40.5941 54.5767 40.958H53.4347V32.9331Z" fill="#D3FF77"/>
<path d="M27.391 40.9652H25.0619V32.5728C25.705 32.5728 26.3228 32.535 26.9299 32.5962C27.0395 32.6338 27.1377 32.699 27.2149 32.7854C27.2922 32.8718 27.346 32.9766 27.3712 33.0898C27.4 35.6855 27.391 38.2776 27.391 40.9652Z" fill="#D3FF77"/>
<path d="M50.457 32.9348H51.5378V40.9598H50.457V32.9348Z" fill="#D3FF77"/>
<path d="M24.9862 31.5424V29.4997H27.3604V31.5424H24.9862Z" fill="#D3FF77"/>
<path d="M51.6279 31.0092H50.376V29.8383H51.6279V31.0092Z" fill="#D3FF77"/>
</svg>
