<svg width="113" height="16" viewBox="0 0 113 16" fill="none" xmlns="http://www.w3.org/2000/svg">
<path d="M18.525 0.874998H22.485V11.735H29.165V14.875H18.525V0.874998ZM43.972 11.815V14.875H32.732V0.874998H43.712V3.935H36.652V6.295H42.872V9.255H36.652V11.815H43.972ZM55.13 15.155C53.6633 15.155 52.3433 14.8483 51.17 14.235C50.01 13.6083 49.0967 12.7417 48.43 11.635C47.7633 10.5283 47.43 9.275 47.43 7.875C47.43 6.475 47.7633 5.22167 48.43 4.115C49.0967 3.00833 50.01 2.14833 51.17 1.535C52.3433 0.908331 53.6633 0.594998 55.13 0.594998C56.41 0.594998 57.5633 0.821665 58.59 1.275C59.6167 1.72833 60.47 2.38166 61.15 3.235L58.63 5.515C57.7233 4.42167 56.6233 3.875 55.33 3.875C54.57 3.875 53.89 4.04167 53.29 4.375C52.7033 4.70833 52.2433 5.18167 51.91 5.795C51.59 6.395 51.43 7.08833 51.43 7.875C51.43 8.66167 51.59 9.36167 51.91 9.975C52.2433 10.575 52.7033 11.0417 53.29 11.375C53.89 11.7083 54.57 11.875 55.33 11.875C56.6233 11.875 57.7233 11.3283 58.63 10.235L61.15 12.515C60.47 13.3683 59.6167 14.0217 58.59 14.475C57.5633 14.9283 56.41 15.155 55.13 15.155ZM67.7784 4.015H63.4784V0.874998H76.0184V4.015H71.7384V14.875H67.7784V4.015ZM85.6138 11.155H83.4538V14.875H79.4938V0.874998H85.8938C87.1604 0.874998 88.2604 1.08833 89.1938 1.515C90.1271 1.92833 90.8471 2.52833 91.3538 3.315C91.8604 4.08833 92.1138 5.00167 92.1138 6.055C92.1138 7.06833 91.8738 7.955 91.3938 8.715C90.9271 9.46167 90.2538 10.0483 89.3738 10.475L92.3938 14.875H88.1538L85.6138 11.155ZM88.1138 6.055C88.1138 5.40167 87.9071 4.895 87.4938 4.535C87.0804 4.175 86.4671 3.995 85.6538 3.995H83.4538V8.095H85.6538C86.4671 8.095 87.0804 7.92167 87.4938 7.575C87.9071 7.215 88.1138 6.70833 88.1138 6.055ZM103.358 15.155C101.878 15.155 100.545 14.8417 99.3584 14.215C98.1851 13.5883 97.2584 12.7217 96.5784 11.615C95.9118 10.5083 95.5784 9.26167 95.5784 7.875C95.5784 6.48833 95.9118 5.24167 96.5784 4.135C97.2584 3.02833 98.1851 2.16167 99.3584 1.535C100.545 0.908331 101.878 0.594998 103.358 0.594998C104.838 0.594998 106.165 0.908331 107.338 1.535C108.525 2.16167 109.452 3.02833 110.118 4.135C110.798 5.24167 111.138 6.48833 111.138 7.875C111.138 9.26167 110.798 10.5083 110.118 11.615C109.452 12.7217 108.525 13.5883 107.338 14.215C106.165 14.8417 104.838 15.155 103.358 15.155ZM103.358 11.875C104.065 11.875 104.705 11.7083 105.278 11.375C105.852 11.0417 106.305 10.575 106.638 9.975C106.972 9.36167 107.138 8.66167 107.138 7.875C107.138 7.08833 106.972 6.395 106.638 5.795C106.305 5.18167 105.852 4.70833 105.278 4.375C104.705 4.04167 104.065 3.875 103.358 3.875C102.652 3.875 102.012 4.04167 101.438 4.375C100.865 4.70833 100.412 5.18167 100.078 5.795C99.7451 6.395 99.5784 7.08833 99.5784 7.875C99.5784 8.66167 99.7451 9.36167 100.078 9.975C100.412 10.575 100.865 11.0417 101.438 11.375C102.012 11.7083 102.652 11.875 103.358 11.875Z" fill="white"/>
<path d="M14.9912 4.15929V1H7.43363L0 9.61062H4.70796L0 15H14.9912V11.8407H7.06195L11.646 6.45133H7.06195L9.04425 4.15929H14.9912Z" fill="url(#paint0_linear_9_15)"/>
<defs>
<linearGradient id="paint0_linear_9_15" x1="7.49558" y1="1" x2="7.49558" y2="15" gradientUnits="userSpaceOnUse">
<stop stop-color="#6A58E2"/>
<stop offset="1" stop-color="#4632D4"/>
</linearGradient>
</defs>
</svg>
