<svg width="20" height="20" viewBox="0 0 20 20" fill="none" xmlns="http://www.w3.org/2000/svg">
<path fill-rule="evenodd" clip-rule="evenodd" d="M5 0C2.23858 0 0 2.23858 0 5V15C0 17.7614 2.23858 20 5 20H15C17.7614 20 20 17.7614 20 15V5C20 2.23858 17.7614 0 15 0H5ZM9.23744 9.82322C9.13981 9.92085 9.13981 10.0791 9.23744 10.1768L11.5303 12.4697C11.8232 12.7626 11.8232 13.2374 11.5303 13.5303C11.2374 13.8232 10.7626 13.8232 10.4697 13.5303L8.17678 11.2374C7.49336 10.554 7.49336 9.44598 8.17678 8.76256L10.4697 6.46967C10.7626 6.17678 11.2374 6.17678 11.5303 6.46967C11.8232 6.76256 11.8232 7.23744 11.5303 7.53033L9.23744 9.82322Z" fill="white"/>
</svg>
