<svg width="37" height="37" viewBox="0 0 37 37" fill="none" xmlns="http://www.w3.org/2000/svg">
<path d="M22.3541 16.9585H30.8333V27.7502C30.8333 31.1559 28.0724 33.9168 24.6666 33.9168H12.3333C8.92753 33.9168 6.16663 31.1559 6.16663 27.7502V16.9585H14.6458" stroke="#6FCF97" stroke-width="2.3125"/>
<path d="M25.4375 16.9583H30.0625C31.3397 16.9583 32.375 15.923 32.375 14.6458V11.5625C32.375 10.2853 31.3397 9.25 30.0625 9.25H6.9375C5.66034 9.25 4.625 10.2853 4.625 11.5625V14.6458C4.625 15.923 5.66034 16.9583 6.9375 16.9583H11.5625" stroke="#6FCF97" stroke-width="2.3125"/>
<path d="M18.5 6.93766C18.5 4.80906 20.2256 3.0835 22.3542 3.0835H23.125C24.8279 3.0835 26.2083 4.46395 26.2083 6.16683V6.16683C26.2083 7.86971 24.8279 9.25016 23.125 9.25016H18.5V6.93766Z" stroke="#6FCF97" stroke-width="2.3125"/>
<path d="M18.5 6.93766C18.5 4.80906 16.7744 3.0835 14.6458 3.0835H13.875C12.1721 3.0835 10.7917 4.46395 10.7917 6.16683V6.16683C10.7917 7.86971 12.1721 9.25016 13.875 9.25016H18.5V6.93766Z" stroke="#6FCF97" stroke-width="2.3125"/>
<path d="M22.3541 9.25L22.3541 33.9167L14.6458 33.9167L14.6458 9.25L22.3541 9.25Z" stroke="#6FCF97" stroke-width="2.3125"/>
</svg>
