<svg width="11" height="13" viewBox="0 0 11 13" fill="none" xmlns="http://www.w3.org/2000/svg">
<path d="M9.5 5.45312C9.5 6.80128 8.69248 8.24531 7.70846 9.38916C7.22389 9.95244 6.71602 10.4198 6.28398 10.7419C6.06749 10.9032 5.87812 11.0221 5.72687 11.0983C5.55984 11.1824 5.49167 11.1875 5.5 11.1875V12.1875C5.73333 12.1875 5.97453 12.0932 6.17665 11.9914C6.39454 11.8817 6.63408 11.7282 6.88165 11.5436C7.37773 11.1738 7.93861 10.655 8.46654 10.0413C9.50752 8.83127 10.5 7.15811 10.5 5.45312H9.5ZM5.5 11.1875C5.50833 11.1875 5.44016 11.1824 5.27314 11.0983C5.12188 11.0221 4.93251 10.9032 4.71602 10.7419C4.28398 10.4198 3.77611 9.95244 3.29154 9.38916C2.30752 8.24531 1.5 6.80128 1.5 5.45312H0.5C0.5 7.15811 1.49248 8.83127 2.53346 10.0413C3.06139 10.655 3.62227 11.1738 4.11835 11.5436C4.36592 11.7282 4.60546 11.8817 4.82335 11.9914C5.02547 12.0932 5.26667 12.1875 5.5 12.1875V11.1875ZM1.5 5.45312C1.5 3.2748 3.28591 1.5 5.5 1.5V0.5C2.74353 0.5 0.5 2.71267 0.5 5.45312H1.5ZM5.5 1.5C7.71409 1.5 9.5 3.2748 9.5 5.45312H10.5C10.5 2.71267 8.25647 0.5 5.5 0.5V1.5Z" fill="#E0E0E0"/>
<circle r="1.6875" transform="matrix(-1 0 0 1 5.5 5.21875)" stroke="#E0E0E0"/>
</svg>
